<svg width="104" height="206" viewBox="0 0 104 206" fill="none" xmlns="http://www.w3.org/2000/svg">
<path d="M27.2816 45.8652C27.2965 45.4584 27.45 45.0123 27.7295 44.5633C28.0089 44.1143 28.4064 43.6752 28.8894 43.2819C29.0559 43.1387 29.2523 43.0164 29.4593 42.9273C29.6662 42.8381 29.8765 42.7851 30.0694 42.7735L62.4565 43.6143L60.1717 47.2588C60.1717 47.2588 28.0999 46.4531 27.7774 46.422C27.6116 46.3965 27.4791 46.332 27.3924 46.2346C27.3056 46.1372 27.2675 46.0101 27.2816 45.8652Z" fill="#24252C" fill-opacity="0.5"/>
<path d="M88.7796 154.652C88.7945 154.245 88.948 153.799 89.2275 153.35C89.5069 152.901 89.9044 152.462 90.3874 152.069C90.5539 151.925 90.7503 151.803 90.9573 151.714C91.1642 151.625 91.3745 151.572 91.5674 151.56L123.954 152.401L121.674 156.054C121.674 156.054 89.6026 155.248 89.2801 155.217C89.1102 155.193 88.9746 155.128 88.8868 155.029C88.799 154.93 88.762 154.8 88.7796 154.652Z" fill="#24252C" fill-opacity="0.5"/>
<path d="M58.0334 100.261C58.0484 99.8539 58.2018 99.4077 58.4813 98.9587C58.7607 98.5097 59.1582 98.0706 59.6412 97.6774C59.8067 97.533 60.0033 97.4098 60.2107 97.3205C60.4181 97.2311 60.6288 97.1788 60.8212 97.169C61.1369 97.1711 93.2083 98.0098 93.2083 98.0098L90.9283 101.663C90.9283 101.663 58.8541 100.853 58.5339 100.826C58.3646 100.801 58.2294 100.736 58.1416 100.637C58.0539 100.538 58.0166 100.408 58.0334 100.261Z" fill="#24252C" fill-opacity="0.5"/>
<path d="M98.7927 157.68C60.1145 157.189 57.6108 139.783 62.3515 125.246C63.9824 120.225 66.9119 114.148 70.0272 107.709C73.1426 101.269 76.4419 94.4303 79.0097 87.5617C88.5386 62.0775 72.592 49.7645 52.5645 48.8578L57.6335 40.9692C70.2572 41.616 80.2456 45.79 86.154 52.8873C93.0244 61.079 93.9668 72.5892 88.8927 86.1657C86.1868 93.3969 82.6774 100.623 79.5958 107.038C76.6222 113.205 73.808 119.031 72.3433 123.536C66.806 140.608 77.3065 149.44 103.563 149.769L98.7927 157.68Z" fill="#92E3A9" fill-opacity="0.5"/>
<g opacity="0.2">
<path d="M77.1489 92.1945L87.2827 90.1971C87.6048 89.4186 87.9151 88.6358 88.223 87.8489L78.106 89.8423L77.1489 92.1945ZM80.4714 82.9021C80.0719 84.3865 79.5784 85.9239 78.9911 87.5144L89.0841 85.5291C89.652 83.9605 90.1391 82.4231 90.5453 80.9167L80.4714 82.9021Z" fill="white" fill-opacity="0.5"/>
<path d="M87.5401 90.4135L76.6513 92.5587L76.7841 92.2374C77.1167 91.4548 77.4365 90.6721 77.7436 89.8893L77.8446 89.6298L88.707 87.4886L88.5886 87.8017C88.2807 88.5886 87.9704 89.3713 87.6434 90.1581L87.5401 90.4135ZM77.6401 91.83L87.0645 89.9601C87.3056 89.3751 87.5419 88.7819 87.7711 88.1928L78.3899 90.0382C78.1271 90.6519 77.8884 91.241 77.6401 91.83ZM89.3773 85.7417L78.5318 87.8789L78.6525 87.5699C79.2298 86.0123 79.7498 84.4544 80.1254 82.9782L80.2028 82.6937L91.0148 80.5645L90.9423 80.8408C90.5452 82.3128 90.054 83.8709 89.4854 85.4945L89.3773 85.7417ZM79.4942 87.1542L88.8417 85.3167C89.3477 83.9364 89.7651 82.5678 90.1195 81.2731L80.7911 83.1107C80.4223 84.4135 79.9883 85.7696 79.4872 87.1417L79.4942 87.1542Z" fill="white" fill-opacity="0.5"/>
</g>
<g opacity="0.2">
<path d="M65.1505 118.039L75.3297 116.037C75.6733 115.263 76.0412 114.464 76.4162 113.661L66.2058 115.675C65.8475 116.474 65.4941 117.264 65.1505 118.039ZM69.6115 108.518C68.8302 110.136 68.0635 111.73 67.3258 113.29L77.548 111.298C78.2096 109.906 78.8953 108.49 79.5885 107.053L79.8409 106.522L69.6115 108.518Z" fill="white" fill-opacity="0.5"/>
<path d="M75.564 116.25L64.6466 118.395L64.7866 118.069C65.1351 117.287 65.4885 116.496 65.8612 115.689L65.9693 115.442L76.9298 113.289L76.7681 113.627L75.6793 115.998L75.564 116.25ZM65.6473 117.67L75.0788 115.813C75.3438 115.22 75.6184 114.627 75.8955 114.021L66.4617 115.875C66.1821 116.492 65.917 117.086 65.652 117.679L65.6473 117.67ZM77.7706 111.489L66.8052 113.651L66.9645 113.309C67.7021 111.748 68.4688 110.155 69.2502 108.537L69.3678 108.29L80.35 106.124L79.9022 107.018L77.8666 111.255L77.7706 111.489ZM67.8371 112.914L77.2733 111.065C77.8988 109.755 78.5374 108.424 79.1889 107.071L79.282 106.882L69.8435 108.727C69.1624 110.151 68.4864 111.551 67.8418 112.922L67.8371 112.914Z" fill="white" fill-opacity="0.5"/>
</g>
<path opacity="0.15" d="M80.827 81.4737C84.6744 66.8397 83.9914 52.9231 77.5295 46.0271C72.0945 43.0727 65.3258 41.3583 57.6115 40.9822L52.5425 48.8708C70.8896 49.7043 85.7984 60.1308 80.827 81.4737Z" fill="#24252C" fill-opacity="0.5"/>
<path opacity="0.15" d="M103.578 149.761C78.8757 149.451 68.1272 141.613 71.5524 126.468C68.2194 138.354 68.5813 147.928 75.5715 154.208C81.242 156.265 88.8203 157.535 98.8558 157.656L103.578 149.761Z" fill="#24252C" fill-opacity="0.5"/>
<path d="M47.1076 59.1605L37.1342 70.5768L40.7447 71.4685L50.5385 60.2739C50.491 60.1479 50.4251 60.0314 50.3416 59.9257C50.1595 59.6686 49.8908 59.4678 49.5497 59.3338C48.9144 59.0442 48.0584 58.9834 47.1076 59.1605ZM58.4679 46.9107C58.2694 46.9385 58.059 47.0064 57.8574 47.1079C57.6558 47.2094 57.47 47.341 57.3182 47.4896C57.2068 47.6127 52.6902 52.7871 47.849 58.3145C48.356 58.1805 48.8449 58.1261 49.2833 58.1548C49.8541 58.1615 50.3443 58.2881 50.7116 58.5237C51.0299 58.697 51.2965 58.9138 51.5053 59.1693L60.924 48.3729C61.044 48.2139 61.1164 48.0516 61.1341 47.9023C61.1517 47.753 61.114 47.6221 61.0246 47.5227C60.7972 47.2331 60.4476 47.0269 60.0037 46.9207C59.5598 46.8144 59.0339 46.811 58.4679 46.9107Z" fill="#24252C" fill-opacity="0.5"/>
<path d="M53.3439 64.4929L37.3402 77.5128L40.0897 79.2414L56.0765 66.242C56.042 66.0684 55.9846 65.9049 55.9051 65.7534C55.7237 65.4012 55.4417 65.1074 55.0708 64.8845C54.5929 64.6473 54.0065 64.5144 53.3439 64.4929ZM71.429 50.351C71.2511 50.3397 71.0486 50.37 70.8419 50.4389C70.6351 50.5078 70.4311 50.6129 70.2503 50.7437C70.1055 50.8584 62.4731 57.0611 54.3746 63.653C54.7381 63.675 55.0838 63.7229 55.4085 63.7963C55.8371 63.9063 56.2075 64.0786 56.5075 64.3076C56.8591 64.5701 57.0943 64.9173 57.1989 65.3283L73.0288 52.4559C73.1876 52.3075 73.307 52.1452 73.3744 51.9859C73.4418 51.8265 73.4548 51.676 73.4122 51.5498C73.3223 51.1821 73.0957 50.8817 72.7509 50.6733C72.4061 50.4649 71.953 50.3544 71.429 50.351Z" fill="#24252C" fill-opacity="0.5"/>
<path d="M59.4468 71.7L39.3876 83.8502L41.1077 86.3029L61.3161 74.0794C61.2671 73.7975 61.1732 73.5352 61.0357 73.2969C60.758 72.861 60.4086 72.4687 59.992 72.125C59.8432 71.9629 59.6534 71.8295 59.4468 71.7ZM81.3424 60.2025C80.8733 59.6087 79.9893 59.326 79.0506 59.8567L79.0073 59.8812L60.7757 70.9324C61.4925 71.4381 62.0536 72.0619 62.4429 72.7858C62.532 72.9459 62.6028 73.1161 62.6547 73.2953L81.1125 62.1217C81.1406 62.0867 81.1781 62.0541 81.2212 62.0274C81.831 61.6061 81.8619 60.7843 81.3641 60.1902L81.3424 60.2025Z" fill="#24252C" fill-opacity="0.5"/>
<path d="M42.0763 40.9706L37.3349 48.8655C13.4384 48.5649 3.34463 41.818 0.240172 33.2591L11.6799 31.0267C15.9376 37.4454 26.0914 40.8097 42.0763 40.9706Z" fill="#92E3A9" fill-opacity="0.5"/>
<path opacity="0.15" d="M42.0763 40.9706L37.3349 48.8655C13.4384 48.5649 3.34463 41.818 0.240172 33.2591L11.6799 31.0267C15.9376 37.4454 26.0914 40.8097 42.0763 40.9706Z" fill="#24252C" fill-opacity="0.5"/>
<path d="M60.9102 21.3282C60.3957 24.7222 59.4626 28.2217 58.1221 31.7849C55.4138 39.0119 51.9068 46.2418 48.8324 52.6527C45.8516 58.8245 43.0374 64.6506 41.5726 69.1555C36.0354 86.2276 46.5407 95.0509 72.8284 95.3675L68.087 103.262C29.4016 102.776 26.9052 85.3651 31.6459 70.828C33.2695 65.8119 36.2062 59.7306 39.3192 53.287C42.4323 46.8434 45.7362 40.0127 48.2969 33.1482C49.5694 29.7778 50.4232 26.4731 50.8463 23.2807L60.9102 21.3282Z" fill="#92E3A9" fill-opacity="0.5"/>
<g opacity="0.2">
<path d="M34.4028 63.6511L44.5797 61.6457C44.9233 60.8715 45.2935 60.0767 45.6662 59.2696L35.4581 61.2872C35.0975 62.082 34.7441 62.8727 34.4028 63.6511ZM38.8615 54.1268C38.0802 55.7449 37.3135 57.3383 36.5758 58.8989L46.7886 56.8896C47.4525 55.502 48.1383 54.0857 48.8315 52.6487L49.0815 52.1134L38.8615 54.1268Z" fill="white" fill-opacity="0.5"/>
<path d="M44.8171 61.8676L33.9021 64.0167L34.0397 63.6872C34.3882 62.9047 34.7416 62.114 35.1144 61.3069L35.2247 61.0639L46.1806 58.9027L46.0213 59.2444C45.6438 60.0488 45.2809 60.8394 44.9324 61.6164L44.8171 61.8676ZM34.9004 63.2882L44.3319 61.4306L45.1487 59.6393L35.7149 61.4927C35.4305 62.1021 35.1655 62.6951 34.9004 63.2882ZM47.0237 57.1074L36.0489 59.252L36.2106 58.9143C36.9482 57.3538 37.7126 55.7562 38.4939 54.1381L38.6139 53.8952L49.5961 51.73L49.1459 52.6192C48.4535 54.0575 47.7758 55.4711 47.1127 56.8601L47.0237 57.1074ZM37.0902 58.5319L46.5264 56.6827C47.1511 55.3775 47.7881 54.0434 48.4444 52.6929L48.5351 52.4994L39.0966 54.3445C38.4132 55.765 37.7372 57.1649 37.0902 58.5319Z" fill="white" fill-opacity="0.5"/>
</g>
<path opacity="0.15" d="M72.8265 95.3683C48.1218 95.054 37.3733 87.2163 40.7985 72.0715C37.4655 83.9579 37.8274 93.531 44.8199 99.8152C50.4881 101.869 58.0687 103.142 68.1042 103.263L72.8265 95.3683Z" fill="#24252C" fill-opacity="0.5"/>
<path d="M119.623 140.589C116.932 147.812 113.408 155.046 110.334 161.457C107.358 167.621 104.536 173.451 103.074 177.96C100.476 185.995 101.409 192.185 105.873 196.53L98.5805 204.581C90.0313 198.072 90.269 188.345 93.0727 179.669C94.7059 174.653 97.645 168.576 100.744 162.141C103.842 155.705 107.156 148.858 109.731 141.985C119.262 116.505 103.316 104.192 83.2881 103.286L88.3571 95.397C100.987 96.0402 110.979 100.214 116.887 107.315C123.748 115.49 124.698 126.996 119.623 140.589Z" fill="#92E3A9" fill-opacity="0.5"/>
<g opacity="0.2">
<path d="M95.9067 172.445L106.084 170.44C106.427 169.665 106.797 168.871 107.17 168.064L96.9597 170.077C96.6014 170.876 96.248 171.667 95.9067 172.445ZM100.365 162.921C99.5841 164.539 98.8174 166.132 98.0797 167.693L108.293 165.684L110.333 161.439L110.585 160.907L100.365 162.921Z" fill="white" fill-opacity="0.5"/>
<path d="M106.322 170.659L95.4044 172.804L95.5444 172.478C95.8929 171.696 96.2463 170.905 96.619 170.098L96.7294 169.855L107.685 167.694L107.524 168.032C107.151 168.839 106.788 169.629 106.437 170.408L106.322 170.659ZM96.4051 172.079L105.837 170.222L106.653 168.431L97.2195 170.284C96.9352 170.893 96.6701 171.486 96.4051 172.079ZM108.528 165.899L97.563 168.06L97.7247 167.722C98.4623 166.162 99.2267 164.564 100.008 162.946L100.126 162.699L111.11 160.538L110.66 161.427L108.624 165.664L108.528 165.899ZM98.5949 167.323L108.031 165.474C108.656 164.169 109.293 162.835 109.949 161.484L110.04 161.291L100.601 163.136C99.9179 164.556 99.2419 165.956 98.5949 167.323Z" fill="white" fill-opacity="0.5"/>
</g>
<path opacity="0.15" d="M111.581 135.869C115.428 121.235 114.745 107.319 108.283 100.423C102.85 97.4667 96.0809 95.7523 88.3654 95.3777L83.2964 103.266C101.644 104.1 116.55 114.522 111.581 135.869Z" fill="#24252C" fill-opacity="0.5"/>
<path d="M119.985 155.705C119.786 155.733 119.576 155.801 119.375 155.902C119.173 156.002 118.987 156.132 118.833 156.279L109.363 167.104C109.87 166.971 110.359 166.917 110.798 166.944C111.366 166.955 111.855 167.081 112.226 167.313C112.536 167.492 112.798 167.712 113.005 167.967L122.438 157.163C122.557 157.003 122.627 156.841 122.642 156.692C122.657 156.543 122.615 156.414 122.522 156.316C122.298 156.027 121.952 155.821 121.511 155.715C121.07 155.609 120.547 155.605 119.985 155.705ZM111.088 168.099C110.442 167.812 109.573 167.758 108.61 167.946C107.617 169.055 106.657 170.188 105.719 171.26C104.647 173.694 103.722 175.951 103.077 177.946C102.842 178.626 102.657 179.327 102.482 179.995L112.048 169.055C112.011 168.964 111.962 168.878 111.903 168.798L111.854 168.711C111.684 168.446 111.424 168.238 111.088 168.099Z" fill="#24252C" fill-opacity="0.5"/>
<path d="M114.848 173.284L101.753 183.932C101.599 185.306 101.595 186.634 101.742 187.905L117.579 175.029C117.545 174.857 117.488 174.695 117.41 174.545C117.227 174.191 116.944 173.896 116.573 173.672C116.096 173.436 115.51 173.304 114.848 173.284ZM132.931 159.138C132.753 159.128 132.55 159.159 132.344 159.228C132.137 159.296 131.934 159.401 131.752 159.531C131.608 159.645 123.975 165.848 115.877 172.44C116.241 172.463 116.588 172.513 116.913 172.587C117.341 172.696 117.71 172.867 118.01 173.095C118.361 173.357 118.596 173.704 118.701 174.115L134.531 161.243C134.689 161.095 134.808 160.934 134.876 160.776C134.944 160.617 134.958 160.467 134.917 160.341C134.827 159.972 134.6 159.671 134.255 159.462C133.91 159.253 133.456 159.142 132.931 159.138Z" fill="#24252C" fill-opacity="0.5"/>
<path d="M89.2249 101.294C89.026 101.325 88.8166 101.394 88.6158 101.495C88.415 101.596 88.2292 101.726 88.0752 101.873L78.606 112.698C79.1126 112.565 79.6011 112.51 80.0403 112.538C80.6082 112.548 81.0975 112.675 81.4685 112.907C81.7789 113.086 82.0404 113.305 82.2478 113.56L91.6809 102.756C91.7994 102.596 91.8696 102.434 91.8843 102.285C91.8991 102.137 91.8578 102.007 91.7647 101.91C91.5397 101.62 91.1928 101.414 90.7519 101.307C90.3109 101.2 89.788 101.196 89.2249 101.294ZM80.3355 113.7C79.6891 113.413 78.8197 113.359 77.8573 113.548C76.8642 114.656 75.9042 115.79 74.9665 116.862C73.8937 119.296 72.9688 121.553 72.3242 123.548C72.0893 124.228 71.9043 124.929 71.7293 125.597L81.2883 114.661C81.2506 114.569 81.2021 114.483 81.1429 114.404L81.0937 114.317C80.9266 114.051 80.669 113.842 80.3355 113.7Z" fill="#24252C" fill-opacity="0.5"/>
<path d="M84.0945 118.885L70.9995 129.532C70.844 130.907 70.8401 132.235 70.9876 133.506L86.8247 120.63C86.791 120.457 86.7344 120.295 86.6556 120.145C86.473 119.792 86.1902 119.497 85.819 119.272C85.3417 119.036 84.756 118.905 84.0945 118.885ZM102.177 104.739C101.999 104.728 101.797 104.759 101.59 104.828C101.384 104.897 101.18 105.001 100.999 105.131C100.854 105.246 93.2213 111.449 85.1228 118.041C85.4872 118.064 85.8337 118.113 86.159 118.188C86.5867 118.297 86.9563 118.468 87.2557 118.695C87.6073 118.958 87.8425 119.305 87.9471 119.716L103.753 106.885C103.911 106.737 104.03 106.576 104.098 106.417C104.165 106.259 104.179 106.109 104.138 105.983C104.058 105.606 103.839 105.297 103.498 105.081C103.156 104.864 102.704 104.747 102.177 104.739Z" fill="#24252C" fill-opacity="0.5"/>
<path d="M112.114 114.577C111.645 113.984 110.761 113.701 109.822 114.232L109.772 114.26L91.526 125.287C92.2499 125.789 92.8122 126.415 93.1955 127.144C93.2873 127.301 93.3573 127.47 93.405 127.649C102.11 122.383 110.155 117.518 111.863 116.476C111.89 116.443 111.926 116.413 111.967 116.39C112.581 115.993 112.612 115.171 112.114 114.577ZM90.7564 126.504C90.5931 126.35 90.4082 126.208 90.2208 126.079C82.6835 130.647 75.1126 135.222 71.845 137.195C72.2021 138.141 72.6625 139.035 73.223 139.869L92.0877 128.454C92.0425 128.171 91.9484 127.908 91.8073 127.672C91.5272 127.237 91.1753 126.846 90.7564 126.504Z" fill="#24252C" fill-opacity="0.5"/>
<path d="M43.091 89.2001C42.8871 89.2983 42.6974 89.4274 42.5403 89.5747C42.3832 89.722 42.2639 89.8826 42.1942 90.0408C41.9716 90.4894 41.8821 90.9234 41.933 91.3067C41.984 91.69 42.1739 92.0115 42.4871 92.2444C42.5855 92.3347 42.7294 92.3897 42.9045 92.4039C43.0796 92.4181 43.28 92.3911 43.4858 92.3255L63.2629 84.362C63.0529 84.3086 62.8651 84.2311 62.7035 84.131C62.4061 83.8999 62.2278 83.5845 62.1831 83.2105C62.1049 82.8215 62.1791 82.3734 62.3989 81.9067C62.5068 81.6918 62.651 81.4758 62.8271 81.2652L43.091 89.2001ZM64.0594 80.7819L63.8642 81.1276C63.7601 81.294 63.6726 81.4606 63.6026 81.6256C63.4625 81.9813 63.4123 82.322 63.4548 82.6284C63.5003 82.9361 63.6483 83.1979 63.8885 83.3955C63.9917 83.4832 64.1225 83.5496 64.2761 83.5922C64.4573 83.6713 64.6728 83.7161 64.9131 83.7245L81.61 77.0208C81.7405 75.8527 81.7916 74.7295 81.799 73.6639L64.0594 80.7819Z" fill="#24252C" fill-opacity="0.5"/>
<path d="M65.7478 89.7739C65.3962 90.0857 65.1054 90.4239 64.8934 90.7677C64.6814 91.1115 64.5526 91.4537 64.515 91.7732C64.4533 92.3639 64.7201 92.8358 65.2581 93.0876C65.3071 93.1032 65.3589 93.116 65.4131 93.1258L77.7367 90.7713L79.1067 87.2281L65.7478 89.7739ZM47.5261 93.2579C47.3226 93.3151 47.1179 93.4099 46.9328 93.5328C46.7478 93.6557 46.5891 93.8021 46.473 93.9572C46.1242 94.388 45.8874 94.8324 45.7816 95.2544C45.6758 95.6764 45.7041 96.0641 45.8642 96.386C45.9117 96.5051 46.0097 96.596 46.1488 96.6498C46.2878 96.7036 46.463 96.7185 46.657 96.6929L63.6493 93.4444C63.2228 93.032 63.0879 92.4364 63.2668 91.7565C63.3594 91.4512 63.5337 91.134 63.7789 90.8249C64.024 90.5159 64.3347 90.2217 64.6911 89.961C56.37 91.541 47.713 93.2178 47.5261 93.2579Z" fill="#24252C" fill-opacity="0.5"/>
<path d="M58.0327 100.262C58.0476 99.8549 58.2011 99.4088 58.4806 98.9598C58.76 98.5108 59.1575 98.0717 59.6405 97.6785C59.806 97.5341 60.0025 97.4109 60.2099 97.3216C60.4173 97.2322 60.6281 97.1799 60.8205 97.1701C61.1362 97.1722 74.8206 97.5283 74.8206 97.5283L73.1043 101.234C73.1043 101.234 58.8268 100.874 58.5137 100.86C58.3419 100.832 58.2068 100.762 58.1222 100.657C58.0377 100.552 58.0068 100.416 58.0327 100.262Z" fill="#24252C" fill-opacity="0.5"/>
<path d="M35.0003 35.3785C34.6487 35.6902 34.3579 36.0284 34.1459 36.3722C33.9338 36.7161 33.805 37.0582 33.7674 37.3777C33.7054 37.9668 33.9715 38.4373 34.5082 38.688C34.5545 38.7065 34.6065 38.7194 34.6632 38.7262L46.9868 36.3717C47.462 35.1728 47.9179 33.9904 48.3709 32.8534L35.0003 35.3785ZM16.7785 38.8624C16.5748 38.921 16.3704 39.0169 16.1859 39.1404C16.0014 39.2639 15.8434 39.4107 15.7278 39.5658C15.3776 39.9986 15.1402 40.445 15.0352 40.8686C14.9302 41.2922 14.9605 41.6809 15.1237 42.003C15.1718 42.1216 15.2701 42.2122 15.4091 42.266C15.548 42.3197 15.7228 42.3349 15.9165 42.3098L32.9088 39.0614C32.4835 38.6483 32.3486 38.053 32.5263 37.3735C32.623 37.0679 32.7991 36.7514 33.0438 36.4428C33.2885 36.1343 33.597 35.8401 33.9506 35.578L16.7785 38.8624Z" fill="#24252C" fill-opacity="0.5"/>
<path d="M27.2816 45.8652C27.2965 45.4584 27.45 45.0123 27.7295 44.5633C28.0089 44.1143 28.4064 43.6752 28.8894 43.2819C29.0559 43.1387 29.2523 43.0164 29.4593 42.9273C29.6662 42.8381 29.8765 42.7851 30.0694 42.7735L44.0695 43.1317L42.3532 46.8378C42.3532 46.8378 28.0952 46.4448 27.7774 46.422C27.6116 46.3965 27.4791 46.332 27.3924 46.2346C27.3056 46.1372 27.2675 46.0101 27.2816 45.8652Z" fill="#24252C" fill-opacity="0.5"/>
<path d="M73.8237 143.566C73.6204 143.665 73.4314 143.794 73.2745 143.941C73.1176 144.088 72.998 144.248 72.9269 144.406C72.7056 144.855 72.6167 145.288 72.6676 145.672C72.7186 146.055 72.9079 146.376 73.2198 146.61C73.3182 146.7 73.4621 146.755 73.6372 146.769C73.8124 146.784 74.0127 146.757 74.2185 146.691C74.401 146.626 84.1139 142.738 93.9906 138.752C93.7791 138.7 93.5912 138.623 93.4312 138.521C93.1189 138.283 92.9287 137.958 92.8758 137.572C92.823 137.186 92.9088 136.749 93.1266 136.297C93.2339 136.081 93.3772 135.864 93.5524 135.651L73.8237 143.566ZM94.7945 135.152L94.5969 135.493C94.4951 135.66 94.4077 135.826 94.3353 135.991C94.1953 136.347 94.1451 136.688 94.1876 136.994C94.233 137.302 94.381 137.563 94.6213 137.761C94.7244 137.849 94.8552 137.915 95.0088 137.958C95.1886 138.038 95.4044 138.083 95.6458 138.09L112.343 131.386C112.473 130.218 112.524 129.095 112.534 128.034L94.7945 135.152Z" fill="#24252C" fill-opacity="0.5"/>
<path d="M96.5006 144.164C96.1491 144.475 95.8582 144.813 95.6457 145.156C95.4333 145.499 95.3039 145.84 95.2654 146.159C95.2038 146.75 95.4706 147.222 96.0085 147.474C96.0548 147.492 96.1069 147.505 96.1635 147.512L108.487 145.158L109.871 141.639L96.5006 144.164ZM78.2789 147.648C78.0752 147.707 77.8708 147.803 77.6863 147.926C77.5018 148.05 77.3438 148.197 77.2282 148.352C76.8768 148.784 76.6388 149.231 76.5338 149.655C76.4287 150.079 76.4597 150.467 76.624 150.789C76.671 150.908 76.7687 150.998 76.9075 151.051C77.0462 151.104 77.221 151.118 77.4145 151.092L94.4092 147.847C93.9833 147.435 93.8483 146.839 94.0267 146.159C94.1234 145.854 94.2994 145.537 94.5442 145.229C94.7889 144.92 95.0973 144.626 95.4509 144.364L78.2789 147.648Z" fill="#24252C" fill-opacity="0.5"/>
<path d="M88.7806 154.647C88.7956 154.24 88.949 153.794 89.2285 153.345C89.5079 152.896 89.9054 152.457 90.3884 152.064C90.5549 151.92 90.7514 151.798 90.9583 151.709C91.1652 151.62 91.3755 151.567 91.5684 151.555L105.569 151.913L103.841 155.599C103.841 155.599 89.5654 155.243 89.2499 155.224C89.0854 155.196 88.9556 155.128 88.8734 155.027C88.7911 154.925 88.7592 154.795 88.7806 154.647Z" fill="#24252C" fill-opacity="0.5"/>
</svg>
